# xmcd
#
# Track frame offsets:
#	150
#	13293
#	27422
#	42221
#	59130
#	71835
#	85738
#	99265
#	112332
#	125187
#
# Disc length: 1813 seconds
#
# Revision: 1
# Processed by: cddbd v1.5.2PL0 Copyright (c) Steve Scherf et al.
# Submitted via: audiograbber 1.83.01
#
DISCID=9507130a
DTITLE=Joanne Trosclair - The Tears Are On Me This Time
DYEAR=1900
DGENRE=Country
TTITLE0=The Tears Are On Me This Time
TTITLE1=Rio Vista
TTITLE2=Smooth Talkin´ Cowboy
TTITLE3=I Miss You
TTITLE4=I´m Gone
TTITLE5=Tear It Up Tonight
TTITLE6=Second Thoughts
TTITLE7=Two Timing Chicken
TTITLE8=What Love Can Do
TTITLE9=Waking Up With A Stranger
EXTD=
EXTT0=
EXTT1=
EXTT2=
EXTT3=
EXTT4=
EXTT5=
EXTT6=
EXTT7=
EXTT8=
EXTT9=
PLAYORDER=
